<svg viewBox="0 0 320.508 101.172" xmlns="http://www.w3.org/2000/svg"><g id="svgGroup" stroke-linecap="round" fill-rule="evenodd" font-size="9pt" stroke="#000" stroke-width="0.5mm" fill="#000" style="stroke:#000;stroke-width:0.5mm;fill:#000"><path d="M 217.383 56.543 L 217.334 31.738 A 4.535 4.535 0 0 1 217.382 31.058 Q 217.436 30.702 217.552 30.414 A 2.012 2.012 0 0 1 217.823 29.932 A 23.423 23.423 0 0 1 219.629 27.856 Q 221.357 26.074 223.828 24.121 A 3.62 3.62 0 0 1 224.231 23.869 Q 224.44 23.758 224.632 23.699 A 1.428 1.428 0 0 1 225.049 23.633 A 1.716 1.716 0 0 1 225.88 23.853 A 2.419 2.419 0 0 1 226.27 24.121 A 48.286 48.286 0 0 1 227.981 25.494 Q 229 26.352 229.81 27.148 A 27.77 27.77 0 0 1 231.28 28.704 A 21.597 21.597 0 0 1 232.276 29.932 Q 232.657 30.427 232.74 31.249 A 4.834 4.834 0 0 1 232.764 31.738 L 232.764 55.176 Q 232.764 64.854 239.771 65.692 A 11.721 11.721 0 0 0 241.162 65.771 A 9.584 9.584 0 0 0 244.261 65.292 A 7.985 7.985 0 0 0 247.803 62.866 Q 250.089 60.199 250.277 55.784 A 18.931 18.931 0 0 0 250.293 54.98 L 250.293 31.738 A 4.535 4.535 0 0 1 250.341 31.058 Q 250.395 30.702 250.511 30.414 A 2.012 2.012 0 0 1 250.782 29.932 A 23.423 23.423 0 0 1 252.588 27.856 Q 254.316 26.074 256.787 24.121 A 3.62 3.62 0 0 1 257.19 23.869 Q 257.399 23.758 257.591 23.699 A 1.428 1.428 0 0 1 258.008 23.633 A 1.716 1.716 0 0 1 258.839 23.853 A 2.419 2.419 0 0 1 259.229 24.121 A 48.286 48.286 0 0 1 260.94 25.494 Q 261.959 26.352 262.769 27.148 A 27.77 27.77 0 0 1 264.239 28.704 A 21.597 21.597 0 0 1 265.235 29.932 Q 265.616 30.427 265.699 31.249 A 4.834 4.834 0 0 1 265.723 31.738 L 265.723 74.121 Q 265.723 75.049 265.088 75.708 A 2.123 2.123 0 0 1 263.568 76.366 A 2.824 2.824 0 0 1 263.477 76.367 L 256.153 76.367 A 4.748 4.748 0 0 1 255.425 76.314 A 3.574 3.574 0 0 1 254.761 76.147 A 2.311 2.311 0 0 1 254.138 75.8 Q 253.906 75.622 253.685 75.376 A 4.133 4.133 0 0 1 253.614 75.293 L 250.586 71.387 L 250.245 71.387 Q 249.463 72.51 247.828 73.975 A 9.49 9.49 0 0 1 246.395 75.018 Q 245.029 75.842 243.091 76.514 Q 239.991 77.588 234.766 77.588 Q 218.743 77.588 217.49 59.707 A 45.282 45.282 0 0 1 217.383 56.543 Z M 314.551 76.367 L 280.371 76.367 A 7.377 7.377 0 0 1 278.248 76.073 A 6.065 6.065 0 0 1 276.221 75.024 A 4.685 4.685 0 0 1 274.415 71.684 A 6.337 6.337 0 0 1 274.39 71.362 A 4.486 4.486 0 0 1 274.384 71.126 Q 274.384 68.895 276.563 66.113 L 298.682 37.744 L 279.981 37.744 Q 279.102 37.744 278.614 37.402 A 19.77 19.77 0 0 1 276.955 35.892 Q 276.182 35.11 275.383 34.16 A 39.051 39.051 0 0 1 274.414 32.959 A 5.669 5.669 0 0 1 274.253 32.68 Q 274.032 32.27 274.024 32.047 A 0.46 0.46 0 0 1 274.024 32.031 Q 274.024 31.742 274.304 31.312 A 3.828 3.828 0 0 1 274.414 31.152 A 36.35 36.35 0 0 1 276.035 29.2 Q 277.362 27.716 278.614 26.709 A 2.495 2.495 0 0 1 279.534 26.397 A 3.213 3.213 0 0 1 279.981 26.367 L 311.768 26.367 A 11.599 11.599 0 0 1 313.924 26.552 Q 315.09 26.773 315.956 27.26 A 4.525 4.525 0 0 1 317.969 29.517 A 5.081 5.081 0 0 1 318.369 31.497 Q 318.369 33.307 317.123 35.334 A 14.011 14.011 0 0 1 316.26 36.572 L 294.483 64.99 L 314.551 64.99 Q 315.43 64.99 315.918 65.332 A 19.77 19.77 0 0 1 317.577 66.843 Q 318.35 67.625 319.149 68.575 A 39.051 39.051 0 0 1 320.118 69.775 A 5.669 5.669 0 0 1 320.279 70.054 Q 320.5 70.464 320.508 70.687 A 0.46 0.46 0 0 1 320.508 70.703 Q 320.508 70.993 320.228 71.422 A 3.828 3.828 0 0 1 320.118 71.582 A 36.35 36.35 0 0 1 318.497 73.534 Q 317.17 75.018 315.918 76.025 A 2.495 2.495 0 0 1 314.998 76.337 A 3.213 3.213 0 0 1 314.551 76.367 Z M 175.977 31.055 L 175.977 93.066 A 4.535 4.535 0 0 1 175.929 93.746 Q 175.875 94.102 175.76 94.391 A 2.012 2.012 0 0 1 175.489 94.873 A 23.423 23.423 0 0 1 173.683 96.949 Q 171.955 98.73 169.483 100.684 A 3.62 3.62 0 0 1 169.08 100.936 Q 168.872 101.046 168.679 101.105 A 1.428 1.428 0 0 1 168.262 101.172 Q 167.768 101.172 167.24 100.825 A 3.253 3.253 0 0 1 167.041 100.684 A 48.286 48.286 0 0 1 165.33 99.311 Q 164.312 98.453 163.501 97.656 A 27.77 27.77 0 0 1 162.031 96.1 A 21.597 21.597 0 0 1 161.036 94.873 Q 160.655 94.378 160.571 93.555 A 4.834 4.834 0 0 1 160.547 93.066 L 160.547 71.387 L 160.352 71.387 Q 159.358 72.652 157.821 73.959 A 26.119 26.119 0 0 1 157.569 74.17 A 11.917 11.917 0 0 1 155.747 75.401 Q 154.806 75.923 153.68 76.364 A 21.156 21.156 0 0 1 153.15 76.562 A 14.388 14.388 0 0 1 150.901 77.158 Q 149.746 77.372 148.4 77.466 A 31.778 31.778 0 0 1 146.192 77.539 Q 138.819 77.539 134.107 74.341 Q 129.395 71.143 127.173 65.527 A 31.108 31.108 0 0 1 125.318 58.308 A 40.788 40.788 0 0 1 124.952 52.734 A 40.974 40.974 0 0 1 125.681 44.843 A 32.619 32.619 0 0 1 127.539 38.623 A 20.391 20.391 0 0 1 136.219 28.742 A 23.807 23.807 0 0 1 136.231 28.735 Q 142.334 25.098 152.93 25.098 A 72.218 72.218 0 0 1 157.406 25.228 Q 159.561 25.362 161.415 25.635 A 33.834 33.834 0 0 1 163.599 26.025 Q 167.92 26.953 170.85 28.32 A 57.94 57.94 0 0 1 173.516 29.645 Q 174.761 30.306 175.835 30.967 A 35.013 35.013 0 0 1 175.977 31.055 Z M 45.85 46.484 L 45.85 74.121 A 2.798 2.798 0 0 1 45.73 74.957 A 2.353 2.353 0 0 1 45.337 75.708 Q 44.92 76.245 44.032 76.344 A 3.846 3.846 0 0 1 43.604 76.367 L 36.28 76.367 A 4.748 4.748 0 0 1 35.552 76.314 A 3.574 3.574 0 0 1 34.888 76.147 A 2.311 2.311 0 0 1 34.265 75.8 Q 34.032 75.622 33.812 75.376 A 4.133 4.133 0 0 1 33.741 75.293 L 30.713 71.387 L 30.371 71.387 A 12.696 12.696 0 0 1 24.341 76.123 A 21.153 21.153 0 0 1 19.721 77.308 A 28.609 28.609 0 0 1 15.625 77.588 A 20.722 20.722 0 0 1 10.848 77.068 A 14.097 14.097 0 0 1 4.224 73.56 A 13.271 13.271 0 0 1 0.392 66.482 A 19.671 19.671 0 0 1 0 62.451 A 17.562 17.562 0 0 1 0.818 57.048 A 16.297 16.297 0 0 1 1.343 55.64 A 12.071 12.071 0 0 1 3.783 52.01 A 16.487 16.487 0 0 1 6.031 50.073 A 18.25 18.25 0 0 1 8.917 48.394 Q 10.447 47.67 12.309 47.064 A 42.081 42.081 0 0 1 15.406 46.191 A 50.317 50.317 0 0 1 20.285 45.28 Q 22.869 44.918 25.876 44.711 A 115.773 115.773 0 0 1 30.811 44.482 Q 30.811 41.787 29.993 40.008 A 5.671 5.671 0 0 0 28.589 38.086 A 6.978 6.978 0 0 0 26.22 36.751 Q 25.181 36.394 23.908 36.243 A 16.905 16.905 0 0 0 21.924 36.133 Q 18.882 36.133 16.686 36.922 A 9.579 9.579 0 0 0 15.381 37.5 Q 12.842 38.867 12.207 39.355 Q 11.549 39.919 10.62 39.805 A 2.8 2.8 0 0 1 10.547 39.795 A 15.368 15.368 0 0 1 9.01 39.482 A 19.614 19.614 0 0 1 7.74 39.111 A 78.237 78.237 0 0 1 6.195 38.586 A 98.132 98.132 0 0 1 4.541 37.988 A 1.792 1.792 0 0 1 4.335 37.889 Q 4.178 37.801 4.004 37.671 A 0.824 0.824 0 0 1 3.713 37.253 A 1.219 1.219 0 0 1 3.662 37.012 Q 3.662 36.768 3.711 36.401 A 7.228 7.228 0 0 1 3.742 36.196 Q 3.791 35.898 3.89 35.389 A 69.528 69.528 0 0 1 3.955 35.059 Q 4.088 34.395 4.311 33.517 A 56.258 56.258 0 0 1 4.541 32.642 A 30.023 30.023 0 0 1 4.734 31.963 Q 4.951 31.23 5.152 30.715 A 7.987 7.987 0 0 1 5.274 30.42 A 3.701 3.701 0 0 1 5.815 29.663 Q 6.098 29.351 6.475 29.055 A 7.071 7.071 0 0 1 6.739 28.857 A 3.459 3.459 0 0 1 7.239 28.532 Q 8.155 28.021 10.264 27.217 A 87.067 87.067 0 0 1 11.768 26.66 Q 15.967 25.146 23.926 25.146 Q 41.233 25.146 44.878 38.444 A 30.461 30.461 0 0 1 45.85 46.484 Z M 103.174 32.031 L 103.174 35.645 L 103.37 35.645 A 19.751 19.751 0 0 1 105.809 30.851 Q 109.514 25.656 116.124 25.494 A 17.485 17.485 0 0 1 116.553 25.488 A 20.147 20.147 0 0 1 117.34 25.503 Q 118.042 25.53 118.555 25.61 A 19.314 19.314 0 0 1 118.905 25.668 Q 119.407 25.756 119.629 25.83 Q 120.362 26.074 120.362 26.953 L 120.362 38.721 Q 120.362 40.19 118.706 39.589 A 4.762 4.762 0 0 1 118.604 39.551 A 6.433 6.433 0 0 0 118.193 39.398 Q 117.679 39.224 116.919 39.038 Q 115.821 38.77 113.868 38.77 A 10.973 10.973 0 0 0 110.306 39.321 A 9.009 9.009 0 0 0 106.006 42.456 A 12.72 12.72 0 0 0 103.893 46.769 Q 103.399 48.503 103.244 50.557 A 25.782 25.782 0 0 0 103.174 52.49 L 103.174 73.779 A 5.508 5.508 0 0 1 103.134 74.475 Q 103.038 75.226 102.715 75.641 A 1.343 1.343 0 0 1 102.564 75.806 Q 102.007 76.318 100.739 76.363 A 7.074 7.074 0 0 1 100.489 76.367 L 90.43 76.367 A 6.023 6.023 0 0 1 89.712 76.328 Q 88.803 76.218 88.355 75.806 A 1.556 1.556 0 0 1 87.983 75.257 Q 87.777 74.772 87.749 74.023 A 6.493 6.493 0 0 1 87.745 73.779 L 87.745 32.861 A 4.535 4.535 0 0 1 87.792 32.181 Q 87.846 31.825 87.962 31.537 A 2.012 2.012 0 0 1 88.233 31.055 A 22.246 22.246 0 0 1 89.518 29.501 A 28.593 28.593 0 0 1 90.699 28.271 A 30.622 30.622 0 0 1 92.085 26.995 Q 92.815 26.362 93.661 25.693 A 54.005 54.005 0 0 1 94.239 25.244 A 2.592 2.592 0 0 1 94.605 25.012 A 1.924 1.924 0 0 1 95.02 24.854 A 3.855 3.855 0 0 1 95.299 24.794 Q 95.444 24.769 95.573 24.76 A 1.957 1.957 0 0 1 95.703 24.756 A 2.073 2.073 0 0 1 96.537 24.937 A 2.942 2.942 0 0 1 97.071 25.244 A 55.322 55.322 0 0 1 99.157 26.956 Q 101.577 29.05 102.735 30.664 A 2.198 2.198 0 0 1 103.173 31.946 A 2.722 2.722 0 0 1 103.174 32.031 Z M 74.463 28.955 L 74.463 73.779 A 5.508 5.508 0 0 1 74.423 74.475 Q 74.327 75.226 74.004 75.641 A 1.343 1.343 0 0 1 73.853 75.806 Q 73.296 76.318 72.028 76.363 A 7.074 7.074 0 0 1 71.778 76.367 L 61.719 76.367 A 6.023 6.023 0 0 1 61.001 76.328 Q 60.092 76.218 59.644 75.806 A 1.556 1.556 0 0 1 59.272 75.257 Q 59.066 74.772 59.038 74.023 A 6.493 6.493 0 0 1 59.034 73.779 L 59.034 28.955 A 5.508 5.508 0 0 1 59.074 28.26 Q 59.17 27.509 59.493 27.093 A 1.343 1.343 0 0 1 59.644 26.929 Q 60.201 26.416 61.469 26.371 A 7.074 7.074 0 0 1 61.719 26.367 L 71.778 26.367 A 6.023 6.023 0 0 1 72.496 26.407 Q 73.405 26.516 73.853 26.929 A 1.556 1.556 0 0 1 74.225 27.477 Q 74.431 27.963 74.459 28.711 A 6.493 6.493 0 0 1 74.463 28.955 Z M 160.547 59.229 L 160.547 39.063 A 7.692 7.692 0 0 0 159.662 38.514 Q 158.771 38.036 157.52 37.598 A 10.465 10.465 0 0 0 155.921 37.188 Q 154.401 36.914 152.393 36.914 A 13.41 13.41 0 0 0 148.816 37.364 A 9.458 9.458 0 0 0 143.75 40.723 A 11.811 11.811 0 0 0 141.935 44.17 Q 140.845 47.322 140.776 51.915 A 41.739 41.739 0 0 0 140.772 52.539 Q 140.772 63.714 148.981 64.937 A 14.541 14.541 0 0 0 151.123 65.088 A 15.855 15.855 0 0 0 153.47 64.926 Q 155.847 64.569 157.325 63.428 Q 159.473 61.768 160.547 59.229 Z M 186.182 66.333 A 1.782 1.782 0 0 0 185.743 67.529 A 1.782 1.782 0 0 0 186.182 68.726 Q 186.512 69.11 186.979 69.673 A 150.608 150.608 0 0 1 187.305 70.068 A 64.728 64.728 0 0 0 188.488 71.404 A 78.72 78.72 0 0 0 190.674 73.706 A 50.948 50.948 0 0 0 194.678 77.344 A 15.942 15.942 0 0 0 194.949 77.536 Q 195.823 78.142 196.341 78.307 A 1.137 1.137 0 0 0 196.68 78.369 A 1.351 1.351 0 0 0 197.108 78.289 Q 197.719 78.082 198.633 77.344 Q 200.635 75.586 202.564 73.73 Q 204.493 71.875 205.957 70.215 A 47.762 47.762 0 0 1 205.988 70.174 Q 206.439 69.562 206.793 69.124 A 14.904 14.904 0 0 1 207.105 68.75 A 1.816 1.816 0 0 0 207.569 67.529 A 1.875 1.875 0 0 0 207.129 66.309 Q 206.8 65.906 206.333 65.338 A 909.328 909.328 0 0 0 206.006 64.941 A 59.469 59.469 0 0 0 203.057 61.78 A 75.054 75.054 0 0 0 198.633 57.715 A 15.124 15.124 0 0 0 198.407 57.548 Q 197.216 56.689 196.68 56.689 A 0.877 0.877 0 0 0 196.587 56.695 Q 196.104 56.746 195.301 57.315 A 10.524 10.524 0 0 0 194.776 57.715 A 136.392 136.392 0 0 0 190.796 61.353 A 66.976 66.976 0 0 0 188.935 63.19 A 51.267 51.267 0 0 0 187.305 64.941 A 72.456 72.456 0 0 1 187.164 65.123 Q 186.74 65.664 186.417 66.054 A 21.716 21.716 0 0 1 186.182 66.333 Z M 56.787 9.961 Q 56.787 9.326 57.178 8.838 A 127.644 127.644 0 0 1 57.389 8.575 Q 57.727 8.154 58.203 7.568 A 45.807 45.807 0 0 1 59.681 5.963 A 60.65 60.65 0 0 1 61.377 4.272 A 99.955 99.955 0 0 1 65.039 0.928 A 9.698 9.698 0 0 1 65.524 0.566 Q 66.289 0.035 66.739 0.002 A 0.797 0.797 0 0 1 66.797 0 A 1.157 1.157 0 0 1 67.147 0.064 Q 67.703 0.243 68.604 0.928 A 76.201 76.201 0 0 1 72.266 4.297 A 56.004 56.004 0 0 1 75.342 7.568 A 75.054 75.054 0 0 1 75.646 7.921 Q 76.08 8.428 76.391 8.812 A 5.069 5.069 0 0 1 76.392 8.813 Q 76.807 9.326 76.807 9.961 A 1.684 1.684 0 0 1 76.392 11.084 A 62.504 62.504 0 0 0 76.168 11.349 Q 75.919 11.645 75.599 12.032 A 200.29 200.29 0 0 0 75.293 12.402 A 50.817 50.817 0 0 1 73.865 13.971 A 69.282 69.282 0 0 1 72.217 15.649 Q 70.459 17.383 68.604 18.945 A 10.525 10.525 0 0 1 68.28 19.212 Q 67.823 19.574 67.53 19.702 A 2.238 2.238 0 0 1 67.197 19.819 Q 67.002 19.87 66.821 19.873 A 1.378 1.378 0 0 1 66.797 19.873 A 1.52 1.52 0 0 1 66.36 19.806 A 1.992 1.992 0 0 1 66.089 19.702 A 2.61 2.61 0 0 1 65.88 19.591 Q 65.536 19.389 64.968 18.965 A 22.367 22.367 0 0 1 64.942 18.945 Q 62.989 17.383 61.28 15.649 A 66.318 66.318 0 0 1 59.324 13.582 A 53.591 53.591 0 0 1 58.203 12.305 A 163.065 163.065 0 0 0 57.901 11.934 Q 57.606 11.572 57.375 11.294 A 51.92 51.92 0 0 0 57.178 11.06 Q 56.787 10.596 56.787 9.961 Z M 30.713 59.229 L 30.713 53.809 A 70.488 70.488 0 0 0 27.164 53.892 Q 22.972 54.104 20.533 54.858 A 15.626 15.626 0 0 0 18.847 55.48 Q 17.135 56.235 16.289 57.232 A 3.902 3.902 0 0 0 16.016 57.593 A 6.433 6.433 0 0 0 14.893 61.23 A 7.093 7.093 0 0 0 15.028 62.668 Q 15.199 63.491 15.585 64.102 A 3.338 3.338 0 0 0 16.651 65.161 Q 18.409 66.26 20.996 66.26 Q 24.113 66.26 26.172 65.155 A 6.828 6.828 0 0 0 27.784 63.965 A 13.655 13.655 0 0 0 29.323 62.15 Q 30.326 60.716 30.713 59.229 Z" vector-effect="non-scaling-stroke"/></g></svg>